<svg width="140" height="48" viewBox="0 0 140 48" fill="none" xmlns="http://www.w3.org/2000/svg">
  <path d="M15.6 36L10.8 24.6H8.4V36H3.6V12H13.2C15.2 12 16.9 12.4 18.3 13.2C19.7 14 20.8 15.1 21.5 16.5C22.2 17.9 22.6 19.4 22.6 21.1C22.6 23.1 22 24.9 20.9 26.4C19.8 27.9 18.2 28.9 16.1 29.4L21.4 36H15.6ZM8.4 20.8H13.2C14.5 20.8 15.5 20.5 16.2 19.8C16.9 19.1 17.2 18.2 17.2 17C17.2 15.8 16.9 14.9 16.2 14.2C15.5 13.5 14.5 13.2 13.2 13.2H8.4V20.8Z" fill="black"/>
  <path d="M42.7 36L42.6 27.8L37.2 34.7H35.2L29.9 28.1V36H25.5V12H29.9V25.2L40.2 12H44.6L36.3 22.8L45.1 36H42.7Z" fill="black"/>
  <path d="M54.4 36.3C52.5 36.3 50.8 35.9 49.3 35.2C47.8 34.4 46.6 33.3 45.7 31.8C44.8 30.3 44.4 28.6 44.4 26.6C44.4 24.7 44.8 23 45.7 21.5C46.6 20 47.8 18.9 49.3 18.1C50.8 17.3 52.5 16.9 54.4 16.9C56.3 16.9 58 17.3 59.5 18.1C61 18.9 62.2 20 63.1 21.5C64 23 64.4 24.7 64.4 26.6C64.4 28.5 64 30.2 63.1 31.7C62.2 33.2 61 34.3 59.5 35.1C58 35.9 56.3 36.3 54.4 36.3ZM54.4 32.4C55.4 32.4 56.3 32.2 57.1 31.7C57.9 31.2 58.5 30.5 59 29.6C59.5 28.7 59.7 27.7 59.7 26.6C59.7 25.5 59.5 24.5 59 23.6C58.5 22.7 57.9 22 57.1 21.5C56.3 21 55.4 20.8 54.4 20.8C53.4 20.8 52.5 21 51.7 21.5C50.9 22 50.3 22.7 49.8 23.6C49.3 24.5 49.1 25.5 49.1 26.6C49.1 27.7 49.3 28.7 49.8 29.6C50.3 30.5 50.9 31.2 51.7 31.7C52.5 32.2 53.4 32.4 54.4 32.4Z" fill="black"/>
  <path d="M78.5 36L73.7 24.6H71.3V36H66.5V12H76.1C78.1 12 79.8 12.4 81.2 13.2C82.6 14 83.7 15.1 84.4 16.5C85.1 17.9 85.5 19.4 85.5 21.1C85.5 23.1 84.9 24.9 83.8 26.4C82.7 27.9 81.1 28.9 79 29.4L84.3 36H78.5ZM71.3 20.8H76.1C77.4 20.8 78.4 20.5 79.1 19.8C79.8 19.1 80.1 18.2 80.1 17C80.1 15.8 79.8 14.9 79.1 14.2C78.4 13.5 77.4 13.2 76.1 13.2H71.3V20.8Z" fill="black"/>
  <path d="M88.1 36V12H92.9V36H88.1Z" fill="black"/>
  <path d="M97.9 36V12H102.7V32.8H113.9V36H97.9Z" fill="black"/>
  <path d="M133.9 36H129.1L118.7 16.8V36H113.9V12H118.7L129.1 31.2V12H133.9V36Z" fill="black"/>
  <path d="M136.1 36V33.2L136.4 33.1H137.1C137.5 33.1 137.7 33 137.9 32.8C138.1 32.6 138.2 32.3 138.2 31.9V16.1C138.2 15.7 138.1 15.4 137.9 15.2C137.7 15 137.5 14.9 137.1 14.9H136.4L136.1 14.8V12H140.9V31.9C140.9 33.3 140.5 34.3 139.7 35.1C138.9 35.9 137.9 36.3 136.5 36.3H136.1V36Z" fill="black"/>
</svg>
