<svg width="150" height="40" viewBox="0 0 150 40" fill="none" xmlns="http://www.w3.org/2000/svg">
  <path d="M20 10C14.5 10 10 14.5 10 20C10 25.5 14.5 30 20 30C25.5 30 30 25.5 30 20C30 14.5 25.5 10 20 10ZM20 28C15.6 28 12 24.4 12 20C12 15.6 15.6 12 20 12C24.4 12 28 15.6 28 20C28 24.4 24.4 28 20 28Z" fill="white"/>
  <path d="M20 15C20.8 15 21.5 15.7 21.5 16.5C21.5 17.3 20.8 18 20 18C19.2 18 18.5 17.3 18.5 16.5C18.5 15.7 19.2 15 20 15Z" fill="white"/>
  <path d="M20 22C20.8 22 21.5 22.7 21.5 23.5C21.5 24.3 20.8 25 20 25C19.2 25 18.5 24.3 18.5 23.5C18.5 22.7 19.2 22 20 22Z" fill="white"/>
  <path d="M23.5 18.5C24.3 18.5 25 19.2 25 20C25 20.8 24.3 21.5 23.5 21.5C22.7 21.5 22 20.8 22 20C22 19.2 22.7 18.5 23.5 18.5Z" fill="white"/>
  <path d="M16.5 18.5C17.3 18.5 18 19.2 18 20C18 20.8 17.3 21.5 16.5 21.5C15.7 21.5 15 20.8 15 20C15 19.2 15.7 18.5 16.5 18.5Z" fill="white"/>
  <path d="M40 20L35 15H45L40 20Z" fill="white"/>
  <path d="M40 20L35 25H45L40 20Z" fill="white"/>
  <path d="M50 18H100" stroke="white" stroke-width="2"/>
  <path d="M50 22H100" stroke="white" stroke-width="2"/>
  <path d="M105 15H145V25H105V15Z" stroke="white" stroke-width="2"/>
  <path d="M110 19H140V21H110V19Z" fill="white"/>
</svg>
