<svg width="140" height="48" viewBox="0 0 140 48" fill="none" xmlns="http://www.w3.org/2000/svg">
  <!-- Stylized bike wheel as part of 'M' -->
  <circle cx="12" cy="24" r="10" stroke="#1a1a1a" stroke-width="2" fill="none"/>
  <circle cx="12" cy="24" r="6" stroke="#1a1a1a" stroke-width="1.5" fill="none"/>
  <circle cx="12" cy="24" r="2" fill="#1a1a1a"/>
  
  <!-- Spokes -->
  <line x1="12" y1="14" x2="12" y2="34" stroke="#1a1a1a" stroke-width="1"/>
  <line x1="2" y1="24" x2="22" y2="24" stroke="#1a1a1a" stroke-width="1"/>
  <line x1="19.07" y1="16.93" x2="4.93" y2="31.07" stroke="#1a1a1a" stroke-width="1"/>
  <line x1="19.07" y1="31.07" x2="4.93" y2="16.93" stroke="#1a1a1a" stroke-width="1"/>
  
  <!-- 'M' continuation -->
  <path d="M22 34 L22 14 L28 24 L34 14 L34 34" stroke="#1a1a1a" stroke-width="2.5" fill="none" stroke-linecap="round" stroke-linejoin="round"/>
  
  <!-- 'Y' -->
  <path d="M42 14 L48 24 L54 14 M48 24 L48 34" stroke="#1a1a1a" stroke-width="2.5" fill="none" stroke-linecap="round" stroke-linejoin="round"/>
  
  <!-- Stylized 'B' with bike frame elements -->
  <path d="M62 14 L62 34 M62 14 L70 14 Q74 14 74 18 Q74 22 70 22 L62 22 M62 22 L72 22 Q76 22 76 26 Q76 30 72 30 L62 30" stroke="#1a1a1a" stroke-width="2.5" fill="none" stroke-linecap="round" stroke-linejoin="round"/>
  
  <!-- 'I' -->
  <line x1="84" y1="14" x2="84" y2="34" stroke="#1a1a1a" stroke-width="2.5" stroke-linecap="round"/>
  
  <!-- 'K' -->
  <path d="M92 14 L92 34 M92 22 L100 14 M92 22 L100 34" stroke="#1a1a1a" stroke-width="2.5" fill="none" stroke-linecap="round" stroke-linejoin="round"/>
  
  <!-- 'E' -->
  <path d="M108 14 L108 34 M108 14 L118 14 M108 24 L116 24 M108 34 L118 34" stroke="#1a1a1a" stroke-width="2.5" fill="none" stroke-linecap="round" stroke-linejoin="round"/>
  
  <!-- Accent line underneath -->
  <line x1="12" y1="40" x2="118" y2="40" stroke="#e74c3c" stroke-width="2" stroke-linecap="round"/>
  
  <!-- Small bike chain link accent -->
  <circle cx="125" cy="24" r="3" stroke="#e74c3c" stroke-width="1.5" fill="none"/>
  <circle cx="132" cy="24" r="3" stroke="#e74c3c" stroke-width="1.5" fill="none"/>
  <line x1="128" y1="24" x2="129" y2="24" stroke="#e74c3c" stroke-width="1.5"/>
</svg>
