<svg width="40" height="25" viewBox="0 0 40 25" fill="none" xmlns="http://www.w3.org/2000/svg">
  <rect width="40" height="25" rx="4" fill="#000000"/>
  <path d="M13.5 10.5C13.1 11 12.5 11.8 12.5 13C12.5 14.4 13.3 15.8 14.5 16.3C14.1 17 13.6 17.7 12.9 17.7C12.5 17.7 12.2 17.6 11.9 17.6C11.6 17.6 11.3 17.7 11 17.7C10.1 17.7 9.5 16.7 9 15.7C8.4 14.5 8 13 8 11.7C8 9.3 9.3 8 10.6 8C11 8 11.5 8.2 11.9 8.2C12.3 8.2 12.7 8 13.2 8C13.6 8 14.4 8.1 15 8.7C14.1 9.1 13.7 9.8 13.5 10.5Z" fill="white"/>
  <path d="M14.5 7.5C14.7 6.8 15.3 6.2 15.9 5.9C16.5 5.6 17.2 5.5 17.8 5.5C17.9 6.2 17.6 6.9 17.1 7.4C16.6 8 15.8 8.3 15 8.3C14.9 8 14.7 7.7 14.5 7.5Z" fill="white"/>
  <path d="M25.5 17.7H24.2L23.5 15.5H20.5L19.8 17.7H18.5L21.5 8.5H22.5L25.5 17.7ZM23.2 14.5L22.5 12.3C22.4 12 22.3 11.5 22.2 11C22.1 11.5 22 12 21.9 12.3L21.2 14.5H23.2Z" fill="white"/>
  <path d="M32 14.2C32 15.4 31.7 16.3 31 16.9C30.5 17.4 29.8 17.7 29 17.7C28.1 17.7 27.5 17.3 27.1 16.6H27V20.5H25.8V12.8C25.8 12.1 25.8 11.4 25.7 10.7H26.8L26.9 11.7H26.9C27.4 10.9 28.2 10.5 29.2 10.5C30 10.5 30.6 10.8 31.1 11.3C31.7 12 32 13 32 14.2ZM30.8 14.2C30.8 13.5 30.6 12.9 30.3 12.4C30 11.9 29.5 11.7 28.9 11.7C28.5 11.7 28.1 11.8 27.8 12.1C27.5 12.4 27.3 12.7 27.2 13.1C27.1 13.3 27.1 13.5 27.1 13.6V15C27.1 15.5 27.3 15.9 27.6 16.2C27.9 16.5 28.3 16.7 28.8 16.7C29.4 16.7 29.9 16.5 30.2 16C30.6 15.5 30.8 14.9 30.8 14.2Z" fill="white"/>
</svg>
