<svg width="40" height="25" viewBox="0 0 40 25" fill="none" xmlns="http://www.w3.org/2000/svg">
  <rect width="40" height="25" rx="4" fill="#F7F7F7"/>
  <path d="M16.5 10.5C16.2 8.9 14.9 8 13.2 8H10C9.6 8 9.2 8.3 9.1 8.7L7 18.5C7 18.8 7.2 19 7.5 19H9.7C10.1 19 10.5 18.7 10.6 18.3L11 16H12.9C14.6 16 16 15.5 16.7 14.4C17.4 13.3 17.3 11.8 16.5 10.5Z" fill="#253B80"/>
  <path d="M26.5 10.5C26.2 8.9 24.9 8 23.2 8H20C19.6 8 19.2 8.3 19.1 8.7L17 18.5C17 18.8 17.2 19 17.5 19H19.5C19.8 19 20 18.8 20.1 18.5L20.5 16H22.4C24.1 16 25.5 15.5 26.2 14.4C26.9 13.3 26.8 11.8 26.5 10.5ZM24 13.5C23.6 14.1 22.9 14.3 22 14.3H21L21.5 11.7H22.5C23.4 11.7 23.8 12.1 23.7 12.8C23.7 13 23.6 13.3 24 13.5Z" fill="#179BD7"/>
  <path d="M33.5 10.5C33.2 8.9 31.9 8 30.2 8H27C26.6 8 26.2 8.3 26.1 8.7L24 18.5C24 18.8 24.2 19 24.5 19H26.5C26.9 19 27.3 18.7 27.4 18.3L27.8 16H29.7C31.4 16 32.8 15.5 33.5 14.4C34.2 13.3 34.1 11.8 33.5 10.5ZM31 13.5C30.6 14.1 29.9 14.3 29 14.3H28L28.5 11.7H29.5C30.4 11.7 30.8 12.1 30.7 12.8C30.7 13 30.6 13.3 31 13.5Z" fill="#253B80"/>
</svg>
