<svg width="40" height="25" viewBox="0 0 40 25" fill="none" xmlns="http://www.w3.org/2000/svg">
  <rect width="40" height="25" rx="4" fill="#1434CB"/>
  <path d="M16.5 16.5H13.5L15.5 8.5H18.5L16.5 16.5Z" fill="white"/>
  <path d="M25.5 8.7C24.9 8.5 24 8.3 23 8.3C20.5 8.3 18.7 9.6 18.7 11.5C18.7 12.9 20 13.7 21 14.2C22 14.7 22.3 15 22.3 15.4C22.3 16 21.6 16.3 21 16.3C20.1 16.3 19.5 16.1 18.7 15.8L18.4 15.7L18 18.1C18.7 18.4 19.8 18.6 21 18.6C23.7 18.6 25.4 17.3 25.4 15.3C25.4 14.2 24.7 13.3 23.2 12.6C22.3 12.1 21.7 11.8 21.7 11.3C21.7 10.9 22.2 10.5 23.1 10.5C23.8 10.5 24.4 10.6 24.8 10.8L25 10.9L25.5 8.7Z" fill="white"/>
  <path d="M29 8.5H26.8L24.5 16.5H26.7L27 15.5H29.8L30 16.5H32.5L29 8.5ZM27.6 13.5C27.6 13.5 28.3 11.4 28.4 11.1C28.4 11.1 28.6 10.6 28.7 10.3L28.8 11C28.8 11 29.2 13.2 29.3 13.5H27.6Z" fill="white"/>
  <path d="M11 8.5L9 14.1L8.8 13.2C8.4 12 7.2 10.7 5.8 10L8.3 16.5H10.6L14.3 8.5H11Z" fill="white"/>
</svg>
